# xmcd
#
# Track frame offsets:
#	150
#	15074
#	29902
#	43408
#	57900
#	72158
#	86655
#	100206
#	114247
#	128800
#	143742
#	156223
#	171611
#	185221
#	199748
#	214112
#	227112
#	242089
#	256979
#	271060
#	285001
#
# Disc length: 3997 seconds
#
# Revision: 1
# Processed by: cddbd v1.5.1PL2 Copyright (c) Steve Scherf et al.
# Submitted via: audiograbber 1.83.01
#
DISCID=2f0f9b15
DTITLE=Vaughn Monroe - On The Moon-Beam and Down Memory Lane
DYEAR=1900
DGENRE=
TTITLE0=Moonlight And Roses
TTITLE1=It's Only A Paper Moon
TTITLE2=Moonglow
TTITLE3=Moon Of Monakoora
TTITLE4=Blue Moon
TTITLE5=Shine On Harvest Moon
TTITLE6=Carolina Moon
TTITLE7=Moon Love
TTITLE8=Moon Over Miami
TTITLE9=Racing With The Moon
TTITLE10=The Moon Was Yellow
TTITLE11=Memory Lane
TTITLE12=Memories
TTITLE13=Memories Of You
TTITLE14=Just A Memory
TTITLE15=Remember
TTITLE16=Thanks For The Memory
TTITLE17=It's Easy To Remember
TTITLE18=Roses For Remembrance
TTITLE19=Something Sentimental
TTITLE20=Anniversary Song
EXTD=
EXTT0=
EXTT1=
EXTT2=
EXTT3=
EXTT4=
EXTT5=
EXTT6=
EXTT7=
EXTT8=
EXTT9=
EXTT10=
EXTT11=
EXTT12=
EXTT13=
EXTT14=
EXTT15=
EXTT16=
EXTT17=
EXTT18=
EXTT19=
EXTT20=
PLAYORDER=
